<svg id="Layer_1" data-name="Layer 1" xmlns="http://www.w3.org/2000/svg"  width="1241.079" height="461.822" viewBox="0 0 1054 324">
  <defs>
    <style>
      .cls-1 {
        fill: #ff0042;
        stroke-width: 0px;
      }
    </style>
  </defs>
  <g>
    <path class="cls-1" d="m190.21,100.54c-35.24,0-59.97,26.37-59.97,59.04,0,36.64,26.83,59.27,61.61,59.27,17.27,0,35.94-4.9,47.14-14.93l-15.17-22.4c-6.3,5.6-17.5,9.57-27.54,9.57-16.8,0-26.6-9.57-28.7-20.07h80.28v-7.7c0-38.27-24.27-62.77-57.64-62.77Zm-23.1,47.14c1.4-8.17,7.47-19.37,23.1-19.37,16.57,0,22.4,11.43,23.34,19.37h-46.44Zm125.08,69.8h-35.94V58.25h35.94v159.23Zm16.8-110.12h35.94v112.29c0,27.3-13.53,46.67-43.64,46.67-5.13,0-9.33-.23-12.83-.93l.93-29.17c2.1.47,4.43.47,6.07.47,8.17,0,13.54-5.37,13.54-17.03v-112.29Zm289.55-4.02v107.21c0,45.97-36.41,55.77-64.41,55.77-19.37,0-35.47-4.9-49.94-16.8l15.64-25.67c8.63,9.33,21.24,13.07,34.3,13.07,11.9,0,28.7-4.9,28.7-25.9v-4.43l-.23-.05c-7,7.93-14.44,14.01-33.34,14.01-25.67,0-42.73-16.17-42.73-36.94v-80.27h35.94v65.57c0,13.53,7,18.2,18.67,18.2,12.24,0,21.42-7.56,21.47-17.98v-65.8h35.94Z"/>
    <path class="cls-1" d="m161.58,58.27v32.96h-43.91v126.27h-34.39v-126.27h-43.91v-32.96h122.21Z"/>
    <path class="cls-1" d="m347.58,78.8c0,11.43-9.1,20.54-20.54,20.54s-20.54-9.1-20.54-20.54,9.1-20.53,20.54-20.53,20.54,9.1,20.54,20.53Z"/>
    <path class="cls-1" d="m417.17,99.53c-38.36,0-61.52,27.37-61.52,59.18s23.16,59.41,61.52,59.41,61.75-27.6,61.75-59.41-22.92-59.18-61.75-59.18Zm35.73,54.14c-.37,3.77-1.09,7.89-1.66,10.04-.77,2.94-2.67,7.58-5.55,11.89-2.44,3.65-5.66,6.98-9.13,9.47-6.23,4.46-18.72,9.89-34.8,2.42-15.75-7.32-19.02-28.36-19.6-33.51-.08-.73-.11-1.15-.11-1.15,0,0-.17-1.19.34-1.64.54-.48,1.1-.56,1.93-.4,2.26.45,16.99,3.62,36.92,2.94,14.23-.48,21.8-3.82,26.21-6.02,1.76-.88,3.02-1.52,3.97-2.02.85-.45,1.13.11,1.3.93.25,1.2.48,4.04.19,7.03Z"/>
  </g>
  <g>
    <path class="cls-1" d="m733.33,58.05c32.6,0,45.55,24.05,45.55,48.56s-12.95,48.56-46.25,48.56h-46.71v62.2h-15.26V58.05h62.66Zm-1.39,82.78c22.89,0,31.68-16.88,31.68-34.22s-8.56-34.22-30.52-34.22h-47.17v68.44h46.01Z"/>
    <path class="cls-1" d="m878.95,109.38h14.8v107.98h-14.8v-22.43c-7.86,14.8-24.51,25.2-43.7,25.2-29.37,0-54.11-24.74-54.11-56.88s23.82-56.65,54.57-56.65c18.5,0,35.15,9.02,43.24,23.82v-21.04Zm0,54.34c0-25.2-20.35-43.01-42.08-43.01s-41.16,19.42-41.16,42.55,18.5,42.78,41.39,42.78,41.85-18.04,41.85-42.32Z"/>
    <path class="cls-1" d="m1000.15,109.38h15.95l-66.3,156.99h-15.74s20.77-50.16,20.77-50.16l-44.63-106.83h15.95l36.77,88.33,37.23-88.33Z"/>
  </g>
</svg>