<svg xmlns="http://www.w3.org/2000/svg" width="1241.079" height="461.822" viewBox="0 0 1241.079 461.822">
  <g id="Group_2030" data-name="Group 2030" transform="translate(9345 18678.004)">
    <path id="Path_1812" data-name="Path 1812" d="M251.422,209.586c-78.2,0-133.1,58.533-133.1,131.039,0,81.32,59.554,131.557,136.73,131.557,38.329,0,79.766-10.879,104.625-33.148l-33.666-49.719c-13.98,12.426-38.847,21.233-61.116,21.233-37.293,0-59.051-21.233-63.706-44.546H379.36V348.914C379.36,263.967,325.49,209.586,251.422,209.586ZM200.15,314.211c3.108-18.125,16.57-42.991,51.273-42.991,36.775,0,49.726,25.377,51.8,42.991Zm277.611,154.93H398V115.72h79.758ZM515.054,224.73h79.758V473.961c0,60.6-30.032,103.582-96.854,103.582-11.39,0-20.715-.51-28.486-2.065l2.08-64.75a63.176,63.176,0,0,0,13.462,1.044c18.125,0,30.04-11.915,30.04-37.811ZM1157.7,215.8V453.757c0,102.035-80.8,123.786-142.954,123.786-42.984,0-78.722-10.872-110.842-37.285l34.71-56.979c19.161,20.722,47.128,29.011,76.132,29.011,26.413,0,63.706-10.879,63.706-57.5v-9.821l-.518-.12c-15.534,17.606-32.052,31.1-74.007,31.1-56.964,0-94.835-35.881-94.835-81.981V215.8h79.758V361.347c0,30.04,15.534,40.394,41.437,40.394,27.179,0,47.534-16.773,47.646-39.9V215.8Z" transform="translate(-9261.622 -18793.725)" fill="#ff003e"/>
    <path id="Path_1813" data-name="Path 1813" d="M362.707,115.724v73.159H265.245V469.145H188.91V188.883H91.455V115.724Z" transform="translate(-9436.455 -18793.699)" fill="#ff003e"/>
    <path id="Path_1814" data-name="Path 1814" d="M261.587,161.306a45.582,45.582,0,1,1-45.582-45.582A45.317,45.317,0,0,1,261.587,161.306Z" transform="translate(-8922.519 -18793.699)" fill="#ff003e"/>
    <path id="Path_1815" data-name="Path 1815" d="M321.494,127.921c-85.142,0-136.542,60.74-136.542,131.346s51.4,131.872,136.542,131.872c86.178,0,137.06-61.266,137.06-131.872S407.672,127.921,321.494,127.921Zm79.3,120.167a165.582,165.582,0,0,1-3.686,22.292,95.127,95.127,0,0,1-12.321,26.391,83.248,83.248,0,0,1-20.272,21.023c-13.83,9.911-41.55,21.954-77.243,5.361-34.965-16.247-42.226-62.94-43.494-74.36-.18-1.637-.24-2.545-.24-2.545s-.375-2.628.758-3.641c1.194-1.074,2.448-1.246,4.272-.886,5.023,1.006,37.7,8.049,81.936,6.54,31.587-1.081,48.39-8.477,58.165-13.357,3.912-1.952,6.712-3.371,8.814-4.49,1.885-1.006,2.515.248,2.883,2.072A60.381,60.381,0,0,1,400.794,248.088Z" transform="translate(-8827.969 -18714.32)" fill="#ff003e"/>
  </g>
</svg>
